# Made in Blockbench 5.1.3
mtllib model.mtl

o mesh
v 0.5 1 0.5
v 0.5 1 -0.5
v 0.5 0 0.5
v 0.5 0 -0.5
v -0.5 1 0.5
v -0.5 1 -0.5
v -0.5 0 0.5
v -0.5 0 -0.5
vt 1 1
vt 0 1
vt 0 0
vt 1 0
vt 1 0
vt 1 1
vt 0 1
vt 0 0
vt 0 0
vt 1 0
vt 1 1
vt 0 1
vt 1 0
vt 1 1
vt 0 1
vt 0 0
vt 1 0
vt 1 1
vt 0 1
vt 0 0
vt 1 1
vt 0 1
vt 0 0
vt 1 0
vn 1 0 0
vn -1 0 0
vn 0 1 0
vn 0 -1 0
vn 0 0 1
vn 0 0 -1
usemtl m_4fb8b69a-e988-7488-9386-ec286710bb6a
f 2/1/1 1/2/1 3/3/1 4/4/1
f 7/5/2 5/6/2 6/7/2 8/8/2
f 5/9/3 1/10/3 2/11/3 6/12/3
f 4/13/4 3/14/4 7/15/4 8/16/4
f 3/17/5 1/18/5 5/19/5 7/20/5
usemtl m_085bab2f-9f5f-9c40-5a5f-633098374940
f 6/21/6 2/22/6 4/23/6 8/24/6
o mesh
v 0.375 1 0.5
v 0.375 1 -0.5
v 0.375 0 0.5
v 0.375 0 -0.5
v 0.375 1 0.5
v 0.375 1 -0.5
v 0.375 0 0.5
v 0.375 0 -0.5
vt 1 1
vt 0 1
vt 0 0
vt 1 0
vt 1 0
vt 1 1
vt 0 1
vt 0 0
vt 1 0
vt 1 1
vt 0 0
vt 0 1
vt 1 1
vt 0 1
vt 1 0
vt 0 0
vt 1 1
vt 0 1
vt 1 0
vt 0 0
vt 0 1
vt 0 0
vt 1 1
vt 1 0
vn 1 0 0
vn -1 0 0
vn 0 0 0
vn 0 0 0
vn 0 0 0
vn 0 0 0
usemtl m_02da4e34-ba22-ae5d-71ef-34f8267dcac9
f 10/25/7 9/26/7 11/27/7 12/28/7
f 15/29/8 13/30/8 14/31/8 16/32/8
f 9/33/9 10/34/9 13/35/9 14/36/9
f 11/37/10 15/38/10 12/39/10 16/40/10
f 9/41/11 13/42/11 11/43/11 15/44/11
f 10/45/12 12/46/12 14/47/12 16/48/12
o mesh
v -0.375 1 0.5
v -0.375 1 -0.5
v -0.375 0 0.5
v -0.375 0 -0.5
v -0.375 1 0.5
v -0.375 1 -0.5
v -0.375 0 0.5
v -0.375 0 -0.5
vt 1 1
vt 0 1
vt 0 0
vt 1 0
vt 1 0
vt 1 1
vt 0 1
vt 0 0
vt 1 0
vt 1 1
vt 0 0
vt 0 1
vt 1 1
vt 0 1
vt 1 0
vt 0 0
vt 1 1
vt 0 1
vt 1 0
vt 0 0
vt 0 1
vt 0 0
vt 1 1
vt 1 0
vn 1 0 0
vn -1 0 0
vn 0 0 0
vn 0 0 0
vn 0 0 0
vn 0 0 0
usemtl m_02da4e34-ba22-ae5d-71ef-34f8267dcac9
f 18/49/13 17/50/13 19/51/13 20/52/13
f 23/53/14 21/54/14 22/55/14 24/56/14
f 17/57/15 18/58/15 21/59/15 22/60/15
f 19/61/16 23/62/16 20/63/16 24/64/16
f 17/65/17 21/66/17 19/67/17 23/68/17
f 18/69/18 20/70/18 22/71/18 24/72/18
o mesh
v 0.5 0.12500000000000022 0.5
v 0.5 0.12500000000000022 -0.5
v -0.5 0.125 0.5
v -0.5 0.125 -0.5
v 0.5 0.12500000000000022 0.5
v 0.5 0.12500000000000022 -0.5
v -0.5 0.125 0.5
v -0.5 0.125 -0.5
vt 1 1
vt 0 1
vt 0 0
vt 1 0
vt 1 0
vt 1 1
vt 0 1
vt 0 0
vt 1 0
vt 1 1
vt 0 0
vt 0 1
vt 1 1
vt 0 1
vt 1 0
vt 0 0
vt 1 1
vt 0 1
vt 1 0
vt 0 0
vt 0 1
vt 0 0
vt 1 1
vt 1 0
vn 2.220446049250313e-16 -1 0
vn -2.220446049250313e-16 1 0
vn 0 0 0
vn 0 0 0
vn 0 0 0
vn 0 0 0
usemtl m_02da4e34-ba22-ae5d-71ef-34f8267dcac9
f 26/73/19 25/74/19 27/75/19 28/76/19
f 31/77/20 29/78/20 30/79/20 32/80/20
f 25/81/21 26/82/21 29/83/21 30/84/21
f 27/85/22 31/86/22 28/87/22 32/88/22
f 25/89/23 29/90/23 27/91/23 31/92/23
f 26/93/24 28/94/24 30/95/24 32/96/24
o mesh
v -0.5 1 0.3750000000000001
v 0.5 1 0.3749999999999999
v -0.5 0 0.3750000000000001
v 0.5 0 0.3749999999999999
v -0.5 1 0.3750000000000001
v 0.5 1 0.3749999999999999
v -0.5 0 0.3750000000000001
v 0.5 0 0.3749999999999999
vt 1 1
vt 0 1
vt 0 0
vt 1 0
vt 1 0
vt 1 1
vt 0 1
vt 0 0
vt 1 0
vt 1 1
vt 0 0
vt 0 1
vt 1 1
vt 0 1
vt 1 0
vt 0 0
vt 1 1
vt 0 1
vt 1 0
vt 0 0
vt 0 1
vt 0 0
vt 1 1
vt 1 0
vn 2.220446049250313e-16 0 1
vn -2.220446049250313e-16 0 -1
vn 0 0 0
vn 0 0 0
vn 0 0 0
vn 0 0 0
usemtl m_02da4e34-ba22-ae5d-71ef-34f8267dcac9
f 34/97/25 33/98/25 35/99/25 36/100/25
f 39/101/26 37/102/26 38/103/26 40/104/26
f 33/105/27 34/106/27 37/107/27 38/108/27
f 35/109/28 39/110/28 36/111/28 40/112/28
f 33/113/29 37/114/29 35/115/29 39/116/29
f 34/117/30 36/118/30 38/119/30 40/120/30
o body4
v 0.18266057163546037 0.5 -0.22521820523810254
v 0.11853179476189749 0.5 -0.40141057163546034
v 0.18266057163546037 0.3125 -0.22521820523810254
v 0.11853179476189749 0.3125 -0.40141057163546034
v -0.05766057163546035 0.5 -0.3372817947618975
v 0.0064682052381025215 0.5 -0.16108942836453966
v -0.05766057163546035 0.3125 -0.3372817947618975
v 0.0064682052381025215 0.3125 -0.16108942836453966
vt 0.046875 0.40625
vt 0.09375 0.40625
vt 0.09375 0.3125
vt 0.046875 0.3125
vt 0 0.40625
vt 0.046875 0.40625
vt 0.046875 0.3125
vt 0 0.3125
vt 0.140625 0.40625
vt 0.1875 0.40625
vt 0.1875 0.3125
vt 0.140625 0.3125
vt 0.09375 0.40625
vt 0.140625 0.40625
vt 0.140625 0.3125
vt 0.09375 0.3125
vt 0.09375 0.40625
vt 0.046875 0.40625
vt 0.046875 0.5
vt 0.09375 0.5
vt 0.140625 0.5
vt 0.09375 0.5
vt 0.09375 0.40625
vt 0.140625 0.40625
vn -0.34202014332566866 0 -0.9396926207859084
vn 0.9396926207859084 0 -0.34202014332566866
vn 0.34202014332566866 0 0.9396926207859084
vn -0.9396926207859084 0 0.34202014332566866
vn 0 1 0
vn 0 -1 0
usemtl m_dbeab0ad-345e-2ee3-2c9e-1bddf00c2ffe
f 44/124/31 47/123/31 45/122/31 42/121/31
f 43/128/32 44/127/32 42/126/32 41/125/32
f 48/132/33 43/131/33 41/130/33 46/129/33
f 47/136/34 48/135/34 46/134/34 45/133/34
f 46/140/35 41/139/35 42/138/35 45/137/35
f 47/144/36 44/143/36 43/142/36 48/141/36
o body1
v 0.01165049997262603 0.4375 -0.6950645156310568
v -0.031102017943082552 0.4375 -0.8125260932292953
v 0.01165049997262603 0.3125 -0.6950645156310568
v -0.031102017943082552 0.3125 -0.8125260932292953
v -0.20729438434044037 0.4375 -0.7483973163557325
v -0.16454186642473181 0.4375 -0.6309357387574939
v -0.20729438434044037 0.3125 -0.7483973163557325
v -0.16454186642473181 0.3125 -0.6309357387574939
vt 0.03125 0.9375
vt 0.078125 0.9375
vt 0.078125 0.875
vt 0.03125 0.875
vt 0 0.9375
vt 0.03125 0.9375
vt 0.03125 0.875
vt 0 0.875
vt 0.109375 0.9375
vt 0.15625 0.9375
vt 0.15625 0.875
vt 0.109375 0.875
vt 0.078125 0.9375
vt 0.109375 0.9375
vt 0.109375 0.875
vt 0.078125 0.875
vt 0.078125 0.9375
vt 0.03125 0.9375
vt 0.03125 1
vt 0.078125 1
vt 0.125 1
vt 0.078125 1
vt 0.078125 0.9375
vt 0.125 0.9375
vn -0.34202014332566866 0 -0.9396926207859084
vn 0.9396926207859084 0 -0.34202014332566866
vn 0.34202014332566866 0 0.9396926207859084
vn -0.9396926207859084 0 0.34202014332566866
vn 0 1 0
vn 0 -1 0
usemtl m_dbeab0ad-345e-2ee3-2c9e-1bddf00c2ffe
f 52/148/37 55/147/37 53/146/37 50/145/37
f 51/152/38 52/151/38 50/150/38 49/149/38
f 56/156/39 51/155/39 49/154/39 54/153/39
f 55/160/40 56/159/40 54/158/40 53/157/40
f 54/164/41 49/163/41 50/162/41 53/161/41
f 55/168/42 52/167/42 51/166/42 56/165/42
o body2
v 0.08376841228789424 0.5 -0.5882910675117453
v 0.041015894372185654 0.5 -0.7057526451099839
v 0.08376841228789424 0.3125 -0.5882910675117453
v 0.041015894372185654 0.3125 -0.7057526451099839
v -0.19390726082429144 0.5 -0.6202476092785667
v -0.15115474290858288 0.5 -0.5027860316803282
v -0.19390726082429144 0.3125 -0.6202476092785667
v -0.15115474290858288 0.3125 -0.5027860316803282
vt 0.03125 0.8125
vt 0.09375 0.8125
vt 0.09375 0.71875
vt 0.03125 0.71875
vt 0 0.8125
vt 0.03125 0.8125
vt 0.03125 0.71875
vt 0 0.71875
vt 0.125 0.8125
vt 0.1875 0.8125
vt 0.1875 0.71875
vt 0.125 0.71875
vt 0.09375 0.8125
vt 0.125 0.8125
vt 0.125 0.71875
vt 0.09375 0.71875
vt 0.09375 0.8125
vt 0.03125 0.8125
vt 0.03125 0.875
vt 0.09375 0.875
vt 0.15625 0.875
vt 0.09375 0.875
vt 0.09375 0.8125
vt 0.15625 0.8125
vn -0.34202014332566866 0 -0.9396926207859084
vn 0.9396926207859084 0 -0.34202014332566866
vn 0.34202014332566866 0 0.9396926207859084
vn -0.9396926207859084 0 0.34202014332566866
vn 0 1 0
vn 0 -1 0
usemtl m_dbeab0ad-345e-2ee3-2c9e-1bddf00c2ffe
f 60/172/43 63/171/43 61/170/43 58/169/43
f 59/176/44 60/175/44 58/174/44 57/173/44
f 64/180/45 59/179/45 57/178/45 62/177/45
f 63/184/46 64/183/46 62/182/46 61/181/46
f 62/188/47 57/187/47 58/186/47 61/185/47
f 63/192/48 60/191/48 59/190/48 64/189/48
o body3
v 0.2066279779605764 0.5625 -0.43347496007224173
v 0.14249920108701353 0.5625 -0.6096673264695995
v 0.2066279779605764 0.3125 -0.43347496007224173
v 0.14249920108701353 0.3125 -0.6096673264695995
v -0.20988553170770216 0.5625 -0.4814097727224738
v -0.14575675483413927 0.5625 -0.305217406325116
v -0.20988553170770216 0.3125 -0.4814097727224738
v -0.14575675483413927 0.3125 -0.305217406325116
vt 0.046875 0.625
vt 0.140625 0.625
vt 0.140625 0.5
vt 0.046875 0.5
vt 0 0.625
vt 0.046875 0.625
vt 0.046875 0.5
vt 0 0.5
vt 0.1875 0.625
vt 0.28125 0.625
vt 0.28125 0.5
vt 0.1875 0.5
vt 0.140625 0.625
vt 0.1875 0.625
vt 0.1875 0.5
vt 0.140625 0.5
vt 0.140625 0.625
vt 0.046875 0.625
vt 0.046875 0.71875
vt 0.140625 0.71875
vt 0.234375 0.71875
vt 0.140625 0.71875
vt 0.140625 0.625
vt 0.234375 0.625
vn -0.34202014332566866 0 -0.9396926207859084
vn 0.9396926207859084 0 -0.34202014332566866
vn 0.34202014332566866 0 0.9396926207859084
vn -0.9396926207859084 0 0.34202014332566866
vn 0 1 0
vn 0 -1 0
usemtl m_dbeab0ad-345e-2ee3-2c9e-1bddf00c2ffe
f 68/196/49 71/195/49 69/194/49 66/193/49
f 67/200/50 68/199/50 66/198/50 65/197/50
f 72/204/51 67/203/51 65/202/51 70/201/51
f 71/208/52 72/207/52 70/206/52 69/205/52
f 70/212/53 65/211/53 66/210/53 69/209/53
f 71/216/54 68/215/54 67/214/54 72/213/54
o body5
v 0.2174239541094636 0.4375 -0.03833770936181752
v 0.15329517723590072 0.4375 -0.21453007575917538
v 0.2174239541094636 0.3125 -0.03833770936181752
v 0.15329517723590072 0.3125 -0.21453007575917538
v 0.03583359963766217 0.4375 -0.17177755784346682
v 0.09996237651122504 0.4375 0.0044148085538910364
v 0.03583359963766217 0.3125 -0.17177755784346682
v 0.09996237651122504 0.3125 0.0044148085538910364
vt 0.046875 0.21875
vt 0.078125 0.21875
vt 0.078125 0.15625
vt 0.046875 0.15625
vt 0 0.21875
vt 0.046875 0.21875
vt 0.046875 0.15625
vt 0 0.15625
vt 0.125 0.21875
vt 0.15625 0.21875
vt 0.15625 0.15625
vt 0.125 0.15625
vt 0.078125 0.21875
vt 0.125 0.21875
vt 0.125 0.15625
vt 0.078125 0.15625
vt 0.078125 0.21875
vt 0.046875 0.21875
vt 0.046875 0.3125
vt 0.078125 0.3125
vt 0.109375 0.3125
vt 0.078125 0.3125
vt 0.078125 0.21875
vt 0.109375 0.21875
vn -0.34202014332566866 0 -0.9396926207859084
vn 0.9396926207859084 0 -0.34202014332566866
vn 0.34202014332566866 0 0.9396926207859084
vn -0.9396926207859084 0 0.34202014332566866
vn 0 1 0
vn 0 -1 0
usemtl m_dbeab0ad-345e-2ee3-2c9e-1bddf00c2ffe
f 76/220/55 79/219/55 77/218/55 74/217/55
f 75/224/56 76/223/56 74/222/56 73/221/56
f 80/228/57 75/227/57 73/226/57 78/225/57
f 79/232/58 80/231/58 78/230/58 77/229/58
f 78/236/59 73/235/59 74/234/59 77/233/59
f 79/240/60 76/239/60 75/238/60 80/237/60
o body6
v 0.2601764720251722 0.375 0.07912386823642098
v 0.2174239541094636 0.375 -0.03833770936181752
v 0.2601764720251722 0.3125 0.07912386823642098
v 0.2174239541094636 0.3125 -0.03833770936181752
v 0.09996237651122504 0.375 0.0044148085538910364
v 0.14271489442693364 0.375 0.12187638615212953
v 0.09996237651122504 0.3125 0.0044148085538910364
v 0.14271489442693364 0.3125 0.12187638615212953
vt 0.203125 0.9375
vt 0.234375 0.9375
vt 0.234375 0.90625
vt 0.203125 0.90625
vt 0.171875 0.9375
vt 0.203125 0.9375
vt 0.203125 0.90625
vt 0.171875 0.90625
vt 0.265625 0.9375
vt 0.296875 0.9375
vt 0.296875 0.90625
vt 0.265625 0.90625
vt 0.234375 0.9375
vt 0.265625 0.9375
vt 0.265625 0.90625
vt 0.234375 0.90625
vt 0.234375 0.9375
vt 0.203125 0.9375
vt 0.203125 1
vt 0.234375 1
vt 0.265625 1
vt 0.234375 1
vt 0.234375 0.9375
vt 0.265625 0.9375
vn -0.34202014332566866 0 -0.9396926207859084
vn 0.9396926207859084 0 -0.34202014332566866
vn 0.34202014332566866 0 0.9396926207859084
vn -0.9396926207859084 0 0.34202014332566866
vn 0 1 0
vn 0 -1 0
usemtl m_dbeab0ad-345e-2ee3-2c9e-1bddf00c2ffe
f 84/244/61 87/243/61 85/242/61 82/241/61
f 83/248/62 84/247/62 82/246/62 81/245/62
f 88/252/63 83/251/63 81/250/63 86/249/63
f 87/256/64 88/255/64 86/254/64 85/253/64
f 86/260/65 81/259/65 82/258/65 85/257/65
f 87/264/66 84/263/66 83/262/66 88/261/66
o body7
v 0.27356359554132115 0.375 0.2072735753135867
v 0.23081107762561257 0.375 0.08981199771534809
v 0.27356359554132115 0.3125 0.2072735753135867
v 0.23081107762561257 0.3125 0.08981199771534809
v 0.1720802888264933 0.375 0.11118825667320242
v 0.21483280674220182 0.375 0.22864983427144103
v 0.1720802888264933 0.3125 0.11118825667320242
v 0.21483280674220182 0.3125 0.22864983427144103
vt 0.234375 0.8125
vt 0.25 0.8125
vt 0.25 0.78125
vt 0.234375 0.78125
vt 0.203125 0.8125
vt 0.234375 0.8125
vt 0.234375 0.78125
vt 0.203125 0.78125
vt 0.28125 0.8125
vt 0.296875 0.8125
vt 0.296875 0.78125
vt 0.28125 0.78125
vt 0.25 0.8125
vt 0.28125 0.8125
vt 0.28125 0.78125
vt 0.25 0.78125
vt 0.25 0.8125
vt 0.234375 0.8125
vt 0.234375 0.875
vt 0.25 0.875
vt 0.265625 0.875
vt 0.25 0.875
vt 0.25 0.8125
vt 0.265625 0.8125
vn -0.34202014332566866 0 -0.9396926207859084
vn 0.9396926207859084 0 -0.34202014332566866
vn 0.34202014332566866 0 0.9396926207859084
vn -0.9396926207859084 0 0.34202014332566866
vn 0 1 0
vn 0 -1 0
usemtl m_dbeab0ad-345e-2ee3-2c9e-1bddf00c2ffe
f 92/268/67 95/267/67 93/266/67 90/265/67
f 91/272/68 92/271/68 90/270/68 89/269/68
f 96/276/69 91/275/69 89/274/69 94/273/69
f 95/280/70 96/279/70 94/278/70 93/277/70
f 94/284/71 89/283/71 90/282/71 93/281/71
f 95/288/72 92/287/72 91/286/72 96/285/72
o wing1
v 0.32408955555881497 0.8125 -0.47622747798795034
v 0.2599607786852521 0.8125 -0.6524198443853082
v 0.32408955555881497 0.3125 -0.47622747798795034
v 0.2599607786852521 0.3125 -0.6524198443853082
v -0.32734710930594074 0.8125 -0.43865725480676526
v -0.26321833243237786 0.8125 -0.2624648884094074
v -0.32734710930594074 0.3125 -0.43865725480676526
v -0.26321833243237786 0.3125 -0.2624648884094074
vt 0.359375 0.90625
vt 0.515625 0.90625
vt 0.515625 0.65625
vt 0.359375 0.65625
vt 0.3125 0.90625
vt 0.359375 0.90625
vt 0.359375 0.65625
vt 0.3125 0.65625
vt 0.5625 0.90625
vt 0.71875 0.90625
vt 0.71875 0.65625
vt 0.5625 0.65625
vt 0.515625 0.90625
vt 0.5625 0.90625
vt 0.5625 0.65625
vt 0.515625 0.65625
vt 0.515625 0.90625
vt 0.359375 0.90625
vt 0.359375 1
vt 0.515625 1
vt 0.671875 1
vt 0.515625 1
vt 0.515625 0.90625
vt 0.671875 0.90625
vn -0.34202014332566866 0 -0.9396926207859084
vn 0.9396926207859084 0 -0.34202014332566866
vn 0.34202014332566866 0 0.9396926207859084
vn -0.9396926207859084 0 0.34202014332566866
vn 0 1 0
vn 0 -1 0
usemtl m_dbeab0ad-345e-2ee3-2c9e-1bddf00c2ffe
f 100/292/73 103/291/73 101/290/73 98/289/73
f 99/296/74 100/295/74 98/294/74 97/293/74
f 104/300/75 99/299/75 97/298/75 102/297/75
f 103/304/76 104/303/76 102/302/76 101/301/76
f 102/308/77 97/307/77 98/306/77 101/305/77
f 103/312/78 100/311/78 99/310/78 104/309/78
o wing2
v 0.3348855317077022 0.5625 -0.08109022727752613
v 0.2707567548341393 0.5625 -0.257282593674884
v 0.3348855317077022 0.3125 -0.08109022727752613
v 0.2707567548341393 0.3125 -0.257282593674884
v -0.08162797796057639 0.5625 -0.1290250399277582
v -0.017499201087013513 0.5625 0.047167326469599646
v -0.08162797796057639 0.3125 -0.1290250399277582
v -0.017499201087013513 0.3125 0.047167326469599646
vt 0.359375 0.5625
vt 0.453125 0.5625
vt 0.453125 0.4375
vt 0.359375 0.4375
vt 0.3125 0.5625
vt 0.359375 0.5625
vt 0.359375 0.4375
vt 0.3125 0.4375
vt 0.5 0.5625
vt 0.59375 0.5625
vt 0.59375 0.4375
vt 0.5 0.4375
vt 0.453125 0.5625
vt 0.5 0.5625
vt 0.5 0.4375
vt 0.453125 0.4375
vt 0.453125 0.5625
vt 0.359375 0.5625
vt 0.359375 0.65625
vt 0.453125 0.65625
vt 0.546875 0.65625
vt 0.453125 0.65625
vt 0.453125 0.5625
vt 0.546875 0.5625
vn -0.34202014332566866 0 -0.9396926207859084
vn 0.9396926207859084 0 -0.34202014332566866
vn 0.34202014332566866 0 0.9396926207859084
vn -0.9396926207859084 0 0.34202014332566866
vn 0 1 0
vn 0 -1 0
usemtl m_dbeab0ad-345e-2ee3-2c9e-1bddf00c2ffe
f 108/316/79 111/315/79 109/314/79 106/313/79
f 107/320/80 108/319/80 106/318/80 105/317/80
f 112/324/81 107/323/81 105/322/81 110/321/81
f 111/328/82 112/327/82 110/326/82 109/325/82
f 110/332/83 105/331/83 106/330/83 109/329/83
f 111/336/84 108/335/84 107/334/84 112/333/84
o wing3
v 0.13181107160808636 0.625 -0.6390327208691593
v 0.08905855369237779 0.625 -0.7564942984673979
v 0.13181107160808636 0.3125 -0.6390327208691593
v 0.08905855369237779 0.3125 -0.7564942984673979
v -0.2633261791023379 0.625 -0.6282367447202721
v -0.2205736611866293 0.625 -0.5107751671220335
v -0.2633261791023379 0.3125 -0.6282367447202721
v -0.2205736611866293 0.3125 -0.5107751671220335
vt 0.34375 0.375
vt 0.4375 0.375
vt 0.4375 0.21875
vt 0.34375 0.21875
vt 0.3125 0.375
vt 0.34375 0.375
vt 0.34375 0.21875
vt 0.3125 0.21875
vt 0.46875 0.375
vt 0.5625 0.375
vt 0.5625 0.21875
vt 0.46875 0.21875
vt 0.4375 0.375
vt 0.46875 0.375
vt 0.46875 0.21875
vt 0.4375 0.21875
vt 0.4375 0.375
vt 0.34375 0.375
vt 0.34375 0.4375
vt 0.4375 0.4375
vt 0.53125 0.4375
vt 0.4375 0.4375
vt 0.4375 0.375
vt 0.53125 0.375
vn -0.34202014332566866 0 -0.9396926207859084
vn 0.9396926207859084 0 -0.34202014332566866
vn 0.34202014332566866 0 0.9396926207859084
vn -0.9396926207859084 0 0.34202014332566866
vn 0 1 0
vn 0 -1 0
usemtl m_dbeab0ad-345e-2ee3-2c9e-1bddf00c2ffe
f 116/340/85 119/339/85 117/338/85 114/337/85
f 115/344/86 116/343/86 114/342/86 113/341/86
f 120/348/87 115/347/87 113/346/87 118/345/87
f 119/352/88 120/351/88 118/350/88 117/349/88
f 118/356/89 113/355/89 114/354/89 117/353/89
f 119/360/90 116/359/90 115/358/90 120/357/90